<svg width="24" height="25" viewBox="0 0 24 25" fill="none" xmlns="http://www.w3.org/2000/svg">
<path fill-rule="evenodd" clip-rule="evenodd" d="M3 8C3 6.067 4.567 4.5 6.5 4.5H17.5C19.433 4.5 21 6.067 21 8V13C21 14.933 19.433 16.5 17.5 16.5H16L10 21.5V17C10 16.7239 9.77614 16.5 9.5 16.5H6.5C4.567 16.5 3 14.933 3 13V8Z" stroke="#687176" stroke-width="2" stroke-linecap="round" stroke-linejoin="round"/>
<path d="M11.75 10.75V10.25H12.25V10.75H11.75Z" stroke="#0194F3" stroke-width="2" stroke-linecap="round" stroke-linejoin="round"/>
<path d="M15.75 10.75V10.25H16.25V10.75H15.75Z" stroke="#0194F3" stroke-width="2" stroke-linecap="round" stroke-linejoin="round"/>
<path d="M7.75 10.75V10.25H8.25V10.75H7.75Z" stroke="#0194F3" stroke-width="2" stroke-linecap="round" stroke-linejoin="round"/>
</svg>
